<?xml version="1.0" encoding="utf-8"?>
<!-- Generator: Adobe Illustrator 27.5.0, SVG Export Plug-In . SVG Version: 6.00 Build 0)  -->
<svg version="1.1" xmlns="http://www.w3.org/2000/svg" xmlns:xlink="http://www.w3.org/1999/xlink" x="0px" y="0px"
	 viewBox="0 0 500 500" style="enable-background:new 0 0 500 500;" xml:space="preserve">
<g id="BACKGROUND">
	<rect x="0.002" style="fill:#FFFFFF;" width="500" height="500"/>
</g>
<g id="OBJECTS">
	<ellipse style="opacity:0.5;fill:#C0D1E0;" cx="250.711" cy="437.157" rx="168.5" ry="9.343"/>
	<g>
		<path style="opacity:0.4;fill:#C0D1E0;" d="M369.419,141.083c38.444,65.687,16.355,150.096-49.325,188.536
			c-65.68,38.44-150.093,16.361-188.536-49.325c-18.472-31.561-22.965-67.446-15.361-100.484c0,0,0.006-0.004,0.008-0.013
			l-0.001-0.016c0.035-0.135,0.18-0.668,0.352-1.503c0.754-3.63,1.125-10.885-3.67-15.608c-6.061-5.979-9.237-5.253-10.291-9.222
			c-1.807-6.804,9.679-9.482,12.385-0.217c2.652,9.075,8.675,3.242,8.924,2.999l0.003-0.01
			c11.216-26.115,30.576-49.003,56.979-64.456C246.566,53.324,330.978,75.402,369.419,141.083z"/>
		<path style="opacity:0.4;fill:#C0D1E0;" d="M150.186,116.206c0-0.007,0.007-0.014,0.021-0.021l-0.007,0.014
			C150.193,116.206,150.186,116.206,150.186,116.206z"/>
		<path style="opacity:0.4;fill:#C0D1E0;" d="M151.27,115.065c-0.57,0.634-0.964,1.021-1.063,1.119
			C150.559,115.812,150.911,115.439,151.27,115.065z"/>
		<path style="opacity:0.4;fill:#C0D1E0;" d="M461.126,133.226h-63.707c0,0,2.796-17.97,10.678-17.27
			c2.179,0.193,3.664,2.405,4.636,4.777c0.599,1.464,2.692,1.36,3.126-0.159c2.084-7.304,6.348-18.449,12.955-18.449
			c6.833,0,7.059,12.753,6.564,20.518c-0.073,1.171,1.442,1.69,2.1,0.721c1.803-2.653,4.434-5.201,7.634-4.462
			c2.733,0.631,3.944,3.464,4.443,6.446c0.15,0.896,1.391,1.012,1.711,0.162c1.664-4.424,4.616-10.857,7.751-10.991
			C463.806,114.315,461.126,133.226,461.126,133.226z"/>
		<path style="opacity:0.4;fill:#C0D1E0;" d="M100.011,260.878H36.304c0,0,2.796-17.97,10.678-17.27
			c2.179,0.193,3.664,2.405,4.636,4.777c0.599,1.464,2.692,1.36,3.126-0.159c2.084-7.304,6.347-18.449,12.955-18.449
			c6.833,0,7.059,12.753,6.564,20.518c-0.073,1.171,1.442,1.69,2.1,0.721c1.803-2.653,4.434-5.201,7.634-4.462
			c2.733,0.631,3.944,3.464,4.443,6.446c0.15,0.896,1.392,1.012,1.711,0.162c1.664-4.424,4.616-10.857,7.751-10.991
			C102.691,241.967,100.011,260.878,100.011,260.878z"/>
		<path style="opacity:0.4;fill:#C0D1E0;" d="M35.625,107.51c0,0,2.485-15.961,9.483-15.339c1.937,0.172,3.254,2.135,4.117,4.243
			c0.532,1.299,2.391,1.207,2.777-0.142c1.852-6.485,5.639-16.385,11.507-16.385c6.07,0,6.271,11.326,5.83,18.224
			c-0.066,1.039,1.28,1.5,1.866,0.639c1.601-2.356,3.937-4.618,6.779-3.963c5.534,1.277,4.044,12.723,4.044,12.723H35.625z"/>
		<path style="opacity:0.4;fill:#C0D1E0;" d="M395.557,286.914c0,0,2.485-15.961,9.483-15.339c1.937,0.172,3.254,2.135,4.117,4.243
			c0.532,1.299,2.391,1.207,2.776-0.142c1.852-6.486,5.639-16.384,11.507-16.384c6.07,0,6.271,11.326,5.83,18.224
			c-0.066,1.039,1.28,1.5,1.866,0.639c1.601-2.356,3.937-4.618,6.779-3.963c5.534,1.277,4.044,12.723,4.044,12.723H395.557z"/>
		<path style="opacity:0.4;fill:#C0D1E0;" d="M182.647,64.383c0,0-20.346,6.443-16.73,14.613c3.616,8.17,11.761-7.489,23.772-7.906
			C201.701,70.674,199.812,58.381,182.647,64.383z"/>
		<path style="opacity:0.4;fill:#C0D1E0;" d="M321.708,69.947c-0.821-1.484-2.412-2.375-4.105-2.463
			c-3.358-0.174-9.728,0.555-9.771,8.573C307.779,85.891,325.655,77.084,321.708,69.947z"/>
		<path style="opacity:0.4;fill:#C0D1E0;" d="M209.862,57.757c-0.34-0.735-1.068-1.215-1.872-1.315
			c-1.594-0.198-4.655-0.069-4.95,3.75C202.677,64.877,211.498,61.293,209.862,57.757z"/>
		<path style="opacity:0.4;fill:#C0D1E0;" d="M359.678,326.874c0,0,17.456-12.278,11.545-18.977
			c-5.911-6.699-8.955,10.686-20.282,14.705C339.614,326.622,345.121,337.773,359.678,326.874z"/>
		<path style="opacity:0.4;fill:#C0D1E0;" d="M107.869,181.66c0.028-1.167-0.607-2.251-1.583-2.892
			c-1.936-1.271-5.975-3.054-8.79,1.697C94.043,186.291,107.732,187.276,107.869,181.66z"/>
	</g>
	<g>
		<g>
			<g>
				<path style="fill:#FCB38F;" d="M247.131,329.826v0.008c-0.019,0.851-0.061,1.866-0.125,3c-0.056,0.98-0.125,2.047-0.208,3.179
					c-0.777,10.689-2.602,27.033-2.602,27.033l-8.871,52.006h-11.183l1.033-46.583l0.072-3.237c-0.43-1.644-0.763-3.315-1.019-4.991
					c-0.077-0.499-0.147-0.998-0.211-1.497c-0.926-7.358-0.414-14.687,0.315-20.126c0.71-5.29,1.625-8.791,1.625-8.791H247.131z"/>
				<path style="fill:#FD8471;" d="M247.131,329.826v0.008c-0.019,0.851-0.061,1.866-0.125,3c-0.056,0.98-0.125,2.047-0.208,3.179
					c-6.552,1.206-17.449,1.903-22.467,2.605c0.71-5.29,1.625-8.791,1.625-8.791H247.131z"/>
				<g>
					<path style="fill:#FCB38F;" d="M208.859,338.193c-0.091,3.531-0.582,7.225-1.233,10.686v0.003
						c-0.544,2.893-1.198,5.623-1.823,7.956c-1.18,4.409-2.247,7.401-2.247,7.401l-1.545,37.187c0,0-0.323-3.736-6.461-3.203
						c-6.138,0.534-7.117,5.338-7.117,5.338l-3.046-38.975l-0.067-2.258l-0.029-1.038c-0.627-2.589-0.899-6.122-0.971-9.822
						c0.003-0.003,0-0.005,0-0.008c-0.04-2.143-0.013-4.34,0.051-6.443c0.051-1.588,0.12-3.12,0.197-4.532c0-0.003,0-0.003,0-0.003
						c0.246-4.47,0.574-7.737,0.574-7.737c4.804-4.537,23.486,0,23.486,0C208.843,334.475,208.91,336.311,208.859,338.193z"/>
					<path style="fill:#FD8471;" d="M208.859,338.193c-5.308,2.077-17.204,6.432-24.49,6.824c0.051-1.588,0.12-3.12,0.197-4.532
						c0-0.003,0-0.003,0-0.003c0.246-4.47,0.574-7.737,0.574-7.737c4.804-4.537,23.486,0,23.486,0
						C208.843,334.475,208.91,336.311,208.859,338.193z"/>
					<path style="fill:#FD8471;" d="M189.678,366.019c0,0-2.455-0.232-4.292-1.433l-0.067-2.258l-0.029-1.038
						c-0.627-2.589-0.899-6.122-0.971-9.822C184.484,353.107,185.667,363.481,189.678,366.019z"/>
					<path style="fill:#FD8471;" d="M205.803,356.838c-1.18,4.409-2.247,7.401-2.247,7.401v1.166
						c-2.26,1.246-5.338,1.148-5.338,1.148C202.756,365.306,205.803,356.838,205.803,356.838z"/>
				</g>
				<path style="fill:#2D1C64;" d="M253.998,250.583c0,0,3.47,20.511,4.27,33.855c0.801,13.344-4.411,22.977-1.742,30.971
					c2.669,7.994-1.461,16.001-11.336,16.001c-12.54,0-22.953,1.601-24.554-3.47c-1.601-5.071-0.534-7.473-0.267-11.743
					c0.267-4.27-0.267-25.088-0.267-25.088l-3.529,0.801c0,0,1.275,27.223,0,29.091c-1.275,1.868,0.46,12.277-1.008,13.878
					c-1.468,1.601-26.689-2.002-32.294,0c-5.605,2.002-7.102-3.68-6.42-5.443s1.349-10.036,1.749-13.506
					c0.4-3.47-1.201-18.237-0.311-24.465c0.89-6.228,0-14.768-0.712-19.572c-0.712-4.804-1.227-11.925,0.365-14.058
					C179.536,255.703,236.651,248.844,253.998,250.583z"/>
				<path style="fill:#FCB38F;" d="M245.125,92.905l0.619,10.014l-2.936,0.496c0,0-3.005,9.066-6.168,11.596
					c-0.219,0.179-0.44,0.323-0.659,0.43c-3.101,1.516-16.12-5.354-20.684-12.013c-0.427-0.624-0.782-1.246-1.046-1.86
					c-3.083-7.158,2.69-24.447,9.496-28.731c6.803-4.284,24.583,7.79,24.583,7.79L245.125,92.905z"/>
				<path style="fill:#FD8471;" d="M236.64,115.012c-0.219,0.179-0.44,0.323-0.659,0.43c-3.101,1.516-16.12-5.354-20.684-12.013
					l1.911-5.506l5.394-1.839c0,0,1.412,1.772,3.28,1.505c1.868-0.267,2.669-1.505,2.669-1.505s-0.956,3.44-3.147,5.575
					C223.347,103.663,227.219,113.779,236.64,115.012z"/>
				<path style="fill:#2D1C64;" d="M245.824,81.624c0,0,7.198-1.13,9.233-9.394s-9.286-4.376-14.332-5.861
					c-5.411-1.592-20.437-4.376-25.429-3.449c-3.734,0.693-7.918,5.703-9.072,15.079c-1.074,8.725-1.818,20.564-0.059,23.667
					c1.76,3.103,3.808,4.197,7.823,4.284c3.202,0.07,8.036-6.364,8.761-9.493c0,0-3.31-7.89-1.17-11.883
					c2.14-3.992,7.536-1.677,7.637,1.42l-0.774,5.001l3.092,1.559l3.311-8.005c0,0,4.073-1.74,4.66-4.299L245.824,81.624z"/>
				<path style="fill:#FD8471;" d="M225.927,93.786c0,0,0.235-2.573,0.238-4.679c-0.339-0.198-0.977-0.384-1.98-0.021
					c0.069-0.069,1.051-1.02,1.94-1.268c-0.032-0.499-0.096-0.907-0.198-1.15c-0.534-1.289-2.268-1.585-2.268-1.585
					s2.135-0.683,2.979,0.651C227.483,87.068,227.305,91.25,225.927,93.786z"/>
				<g>
					<path style="fill:#31D4A9;" d="M249.827,221.492c-0.51-1.393-1.009-2.845-1.487-4.342c0.176,0.758,2.85,12.312,4.47,21.949
						c0,0.003,0,0.003,0,0.003c0.814,4.855,1.361,9.224,1.188,11.482c-0.534,6.899-11.839,2.896-23.134,6.098
						c-11.295,3.203-53.997,3.47-55.332,0c-0.862-2.239-0.166-14.807,0.793-26.956c0,0,0-0.005,0.003-0.019
						c0.526-6.678,1.134-13.227,1.607-17.863c1.334-13.078-0.534-30.426-0.534-30.426s-1.334,28.023-4.003,38.165
						s-9.627,25.509-9.36,33.783l-8.364-0.44c-0.003,0-0.003,0-0.003,0l-4.692-0.248c0,0,4.27-27.49,6.405-41.635
						c2.135-14.145,2.847-43.236,6.316-57.115c3.469-13.878,6.761-23.219,9.697-25.621c1.492-1.22,7.222-5.968,12.768-7.718
						c5.372-1.7,10.318-3.09,10.318-3.09s-8.273-10.409-4.537-15.88c2.682-3.929,5.743-6.136,9.072-6.301
						c1.308-0.067,2.656,0.184,4.038,0.766c0,0,17.095,14.92,27.838,18.931c1.821,0.68,2.815,2.72,2.137,4.542
						c-0.226,0.607-0.598,1.227-1.183,1.813c0,0,13.697,5.332,18.963,9.875c8.661,7.473,5.992,20.55,5.992,26.689
						s0.942,43.503,1.671,48.841c0.731,5.338,0.998,10.337,0.998,10.337l-2.936,22.758c0,0-4.703-7.436-8.701-18.354
						C249.832,221.508,249.83,221.501,249.827,221.492z"/>
					<path style="fill:#31AF8B;" d="M233.848,121.369c0,0-4.366,2.802-10.19,3.069c-5.824,0.267-14.364-2.669-20.502-0.667
						c-5.082,1.657-13.542-0.16-16.99-3.181c5.372-1.7,10.318-3.09,10.318-3.09s-8.273-10.409-4.537-15.88
						c2.682-3.929,5.743-6.136,9.072-6.301c0,0-5.068,3.499-4.134,9.904c0.934,6.405,4.537,11.61,9.341,12.944
						c4.804,1.334,11.743,0.934,15.346,1.868C225.174,120.968,233.848,121.369,233.848,121.369z"/>
					<path style="fill:#31AF8B;" d="M252.811,239.099c-15.869-26.921-14.204-53.322-14.38-60.616
						c-0.179-7.294,3.825-22.598,3.825-22.598c0.622,8.719-0.979,15.659-0.747,26.155c0.232,10.499,6.827,35.088,6.827,35.088
						c0.561,1.553,1.054,3.008,1.492,4.364c-0.51-1.393-1.009-2.845-1.487-4.342C248.517,217.908,251.191,229.462,252.811,239.099z"
						/>
					<path style="fill:#31AF8B;" d="M177.935,211.844c1.334-13.078-0.534-30.426-0.534-30.426s-1.334,28.023-4.003,38.165
						s-9.627,25.509-9.36,33.783l-8.364-0.44c0.144-0.032,5.372-1.222,6.248-7.366c0.889-6.227,6.405-19.571,8.186-23.662
						c1.777-4.094,3.736-28.469,3.736-32.739c0-4.27,3.736-36.476,3.736-36.476s1.068,27.757,3.558,35.942
						c2.458,8.076-4.62,40.226-4.809,41.082C176.854,223.03,177.462,216.48,177.935,211.844z"/>
				</g>
				<g>
					<path style="fill:#2D1C64;" d="M230.5,122.975c0,0,3.383-2.496,7.925-2.584c4.542-0.089,8.407,6.955,8.407,6.955
						s-2.798-0.055-4.577,3.523C242.255,130.868,238.666,126.44,230.5,122.975z"/>
					<g>
						<path style="fill:#403384;" d="M242.256,134.979c-2.936,8.808-3.39,58.689-3.831,65.389s2.762,45.371-32.199,45.639
							c-26.649,0.203-32.519-20.316-35.308-40.766c-0.002-0.012-0.005-0.02-0.005-0.02c-0.868-6.37-1.438-12.736-2.247-18.464
							c-0.399-2.822-0.625-5.832-0.704-8.952c-0.052-2.013-0.04-4.074,0.027-6.162c0.176-5.564,0.751-11.312,1.604-16.862
							c0.228-1.503,0.481-2.99,0.751-4.456c2.72-14.824,7.293-27.373,11.31-29.759c0.119-0.069,0.238-0.139,0.362-0.206
							c0.994-0.538,2.155-0.974,3.415-1.322c8.22-2.271,20.795-0.873,20.795-0.873c8.225,1.024,15.414,2.294,21.179,3.881
							c0.932,0.255,1.825,0.521,2.68,0.793c3.697,1.18,6.673,2.519,8.793,4.042C242.04,129.149,243.307,131.822,242.256,134.979z"/>
						<path style="fill:#2D1C64;" d="M231.449,177.791c-0.174,2.229-0.317,4.431-0.422,6.581
							c-7.806,5.061-20.638,11.156-35.063,9.11c-13.869-1.964-22.905-9.653-28.003-15.676c-0.052-2.013-0.04-4.074,0.027-6.162
							c5.919,7.072,17.926,17.898,35.105,16.544C216.083,187.164,225.349,182.418,231.449,177.791z"/>
						<path style="fill:#2D1C64;" d="M234.549,151.02c-0.345,2.373-0.697,4.885-1.036,7.484
							c-6.107,4.716-20.502,13.943-37.165,11.58c-13.47-1.909-22.077-9.581-26.753-15.302c0.228-1.503,0.481-2.99,0.751-4.456
							c5.339,6.589,16.048,16.105,32.685,14.796C219.472,163.825,229.547,156.165,234.549,151.02z"/>
						<path style="fill:#2D1C64;" d="M242.255,134.98c-2.936,8.807-3.389,58.689-3.83,65.388c-0.443,6.699,2.762,45.371-32.2,45.638
							c-26.649,0.203-32.518-20.316-35.307-40.765c0.205,0.926,7.118,31.135,30.77,29.822c24.02-1.334,28.728-25.888,29.176-46.172
							c0.448-20.284,5.178-47.685,6.405-54.979c0.446-2.65,0.915-5.066,1.609-7.03C242.039,129.148,243.307,131.823,242.255,134.98z
							"/>
					</g>
					<g>
						<path style="fill:#2D1C64;" d="M182.41,230.177c-4.661-12.137-3.001-42.508-2.928-43.795l2.228,0.126
							c-0.018,0.311-1.706,31.178,2.783,42.869L182.41,230.177z"/>
					</g>
					<g>
						<path style="fill:#2D1C64;" d="M215.547,232.757c-4.661-12.137-3.001-42.508-2.928-43.795l2.228,0.126
							c-0.018,0.31-1.706,31.178,2.783,42.868L215.547,232.757z"/>
					</g>
					<g>
						<path style="fill:#2D1C64;" d="M230.085,122.841c-0.54,5.775-2.618,17.375-10.588,23.542
							c-3.834,2.968-10.764,4.734-17.779,4.734c-1.862,0-3.73-0.124-5.547-0.382c-4.466-0.637-10.489-2.358-13.822-6.941
							c-4.972-6.837-2.38-17.534-0.332-23.433c0.994-0.538,2.155-0.974,3.415-1.322c-1.771,4.476-5.758,16.438-0.878,23.15
							c2.165,2.973,6.425,5.049,12.002,5.845c7.876,1.121,17.02-0.516,21.273-3.806c7.335-5.678,9.135-17.043,9.577-22.181
							C228.337,122.303,229.23,122.568,230.085,122.841z"/>
					</g>
				</g>
				<g>
					<path style="fill:#F15A48;" d="M202.011,423.088c-1.412,2.402-0.19,8.54-3.793,10.809c-3.603,2.268-14.946,1.067-16.814,0
						c-0.336-0.192-0.606-0.579-0.809-1.108c-0.005-0.013-0.011-0.027-0.013-0.04c-0.902-2.423-0.483-7.708,0.822-10.862
						c1.601-3.87,6.272-13.611,6.272-13.611c0.133-2.135,0.755-4.716,0.755-4.716s-0.44-5.655,6.718-5.96
						c7.158-0.304,6.862,3.824,6.862,3.824s2.613,3.115,3.013,6.584C205.425,411.478,203.423,420.686,202.011,423.088z"/>
					<path style="fill:#D43538;" d="M202.011,423.088c-1.412,2.402-0.19,8.54-3.793,10.809c-3.603,2.268-14.946,1.067-16.814,0
						c-0.336-0.192-0.606-0.579-0.809-1.108c-0.005-0.013-0.011-0.027-0.013-0.04c-0.822-3.018,2.423-5.703,3.718-9.082
						c1.294-3.381,6.267-11.567,6.8-13.435c0.534-1.868,4.361-4.804,8.186-5.071c3.825-0.267,5.738,2.848,5.738,2.848
						C205.425,411.478,203.423,420.686,202.011,423.088z"/>
				</g>
				<path style="fill:#FD8471;" d="M225.174,368.469l0.072-3.237c-0.43-1.644-0.763-3.315-1.019-4.991
					c0.435,2.02,1.767,5.807,5.834,9.6C229.93,369.816,227.424,369.341,225.174,368.469z"/>
				<g>
					<path style="fill:#F15A48;" d="M239.586,433.897c-9.128,2.901-14.986,1.548-19.755-0.934c-0.029-0.907,0.075-2.124,0.256-3.47
						c0.622-4.652,2.151-10.809,2.151-10.809c0-3.203,1.975-6.851,1.975-6.851c5.709-1.911,11.5,0.934,11.5,0.934
						s2.271,1.513,3.072,7.398c0.47,3.453,0.665,7.582,0.745,10.403C239.586,432.557,239.586,433.897,239.586,433.897z"/>
					<path style="fill:#D43538;" d="M239.586,433.897c-9.128,2.901-14.986,1.548-19.755-0.934c-0.029-0.907,0.075-2.124,0.256-3.47
						c1.447,1.262,4.828,3.152,9.619,3.022c4.089-0.112,7.705-0.964,9.824-1.946C239.586,432.557,239.586,433.897,239.586,433.897z"
						/>
				</g>
			</g>
			<g>
				<g>
					<path style="fill:#FCB38F;" d="M171.93,270.427c0,2.936-3.87,6.272-6.005,6.272c-0.299,0-0.555,0.072-0.787,0.2h-0.003
						c-0.318,0.173-0.598,0.443-0.897,0.758c-1.049,1.108-2.349,2.778-6.453,2.778c-6.139,0-9.208-4.537-10.676-9.475
						c-0.985-3.312,0.312-5.303,1.516-6.376c0.59-0.526,1.156-0.833,1.42-0.964c0,0-0.294-0.713-0.534-1.86
						c-0.446-2.13-0.702-5.757,1.468-9.082c0,0,9.17-0.224,13.059,0.689c0,0,0.819,3.715,1.62,6.251
						C166.459,262.153,171.93,267.491,171.93,270.427z"/>
				</g>
				<g>
					<g>
						<path style="fill:#2D1C64;" d="M124.551,332.836l-1.59-0.191l7.718-64.369c0.365-3.042,2.95-5.335,6.013-5.335h20.007
							c1.704,0,3.338,0.724,4.484,1.985c1.146,1.262,1.709,2.958,1.545,4.655l-6.259,63.239l-1.594-0.158l6.259-63.237
							c0.12-1.246-0.294-2.494-1.136-3.422c-0.843-0.928-2.045-1.46-3.298-1.46h-20.007c-2.254,0-4.155,1.687-4.424,3.925
							L124.551,332.836z"/>
					</g>
					<g>
						<path style="fill:#2D1C64;" d="M161.935,271.47c-0.082,0-0.164-0.004-0.247-0.012c-1.394-0.135-2.415-1.374-2.28-2.768
							c0.075-0.773-0.172-1.516-0.694-2.09c-0.522-0.575-1.237-0.892-2.014-0.892h-20.007c-1.376,0-2.537,1.03-2.701,2.396
							c-0.167,1.391-1.428,2.382-2.819,2.216c-1.39-0.167-2.382-1.429-2.216-2.819c0.469-3.913,3.795-6.864,7.736-6.864h20.007
							c2.192,0,4.295,0.931,5.768,2.554c1.474,1.623,2.198,3.805,1.987,5.987C164.329,270.489,163.225,271.47,161.935,271.47z"/>
					</g>
				</g>
				<g>
					<path style="fill:#F15A48;" d="M176.638,346.538l-2.439,60.669v18.317c0,3.024-1.94,5.706-4.812,6.654
						c-18.562,6.125-46.986,2.773-58.065,1.102c-2.994-0.451-5.405-2.69-6.08-5.642c-0.91-3.974-1.759-9.128-2.338-12.952
						c-0.475-3.112-0.766-5.343-0.766-5.343c-1.481-14.383,3.397-55.057,5.485-71.324c0.51-3.961,3.811-6.971,7.807-7.105
						c15.023-0.51,49.639-1.353,53.236,1.564c0.104,0.085,0.208,0.173,0.312,0.262c3.272,2.848,5.909,8.148,7.073,10.753
						C176.48,344.449,176.68,345.49,176.638,346.538z"/>
					<path style="fill:#D43538;" d="M176.638,346.538l-2.439,60.669v18.317c0,3.024-1.94,5.706-4.812,6.654
						c-18.562,6.125-46.986,2.773-58.065,1.102c-2.994-0.451-5.405-2.69-6.08-5.642c-0.91-3.974-1.759-9.128-2.338-12.952
						c5.634,1.217,19.302,3.776,34.108,3.643c19.392-0.179,25.622-0.326,27.578-3.277c1.777-2.682,2.527-67.278,4.388-82.312
						c3.272,2.848,5.909,8.148,7.073,10.753C176.48,344.449,176.68,345.49,176.638,346.538z"/>
				</g>
				<path style="fill:#D43538;" d="M113.383,379.137c-0.56,4.339-2.169,17.515-1.915,23.867c0.041,1.014,0.821,1.843,1.83,1.954
					c6.024,0.667,26.872,2.664,40.605,0.125c0.931-0.172,1.63-0.945,1.692-1.889c0.282-4.301,1.035-16.415,1.051-23.182
					c0.002-1.02-0.742-1.885-1.75-2.037c-5.968-0.899-26.05-3.53-39.912-0.584C114.132,377.572,113.494,378.275,113.383,379.137z"/>
				<path style="fill:#FCB38F;" d="M165.137,276.899c0,0-7.012-3.937-7.086-7.406c-0.074-3.47,4.47-3.36,5.805-2.948
					c1.334,0.413,4.073,2.414,4.073,2.414S167.945,274.439,165.137,276.899z"/>
				<path style="fill:#FCB38F;" d="M146.763,268.828c0,0-0.388-4.206,2.348-5.741c2.736-1.535,9.879,0.47,11.276,1.868
					s1.268,4.203,1.268,4.203S154.557,270.632,146.763,268.828z"/>
			</g>
		</g>
		<g>
			<g>
				<path style="fill:#FCB38F;" d="M307.91,406.335h-9.608c0,0-0.838-3.611-2.063-8.757c2.253-1.692,7.03-4.564,11.551-2.647
					C307.849,401.518,307.91,406.335,307.91,406.335z"/>
				<g>
					<path style="fill:#FCB38F;" d="M307.91,406.335h-9.608c0,0-0.838-3.611-2.063-8.757c2.253-1.692,7.03-4.564,11.551-2.647
						C307.849,401.518,307.91,406.335,307.91,406.335z"/>
				</g>
				<g>
					<path style="fill:#2D1C64;" d="M330.596,286.04c-1.892,8.589-3.451,46.797-3.451,46.797l-16.751,12.933
						c-2.826-12.085-5.9-38.864-5.953-55.014v41.984c2.135,8.268,4.003,20.823,3.469,26.003c-0.355,3.435-0.237,23.233-0.12,36.188
						c0.059,6.587,0.12,11.404,0.12,11.404h-9.608c0,0-0.838-3.611-2.063-8.757c-2.431-10.222-6.392-26.502-8.346-32.536
						c-2.936-9.074-2.402-23.756-3.203-29.737c-0.801-5.984-3.47-20.975-8.007-42.502c-4.537-21.525-3.203-37.455-3.203-37.455
						l55.865-7.935c0,0,3.016,4.209,3.918,13.224C334.106,269.028,332.878,275.685,330.596,286.04z"/>
					<path style="fill:#FCB38F;" d="M307.91,406.335h-9.608c0,0-0.838-3.611-2.063-8.757c2.253-1.692,7.03-4.564,11.551-2.647
						C307.849,401.518,307.91,406.335,307.91,406.335z"/>
				</g>
				<g>
					<g>
						<path style="fill:#FCB38F;" d="M273.265,274.086c-0.216,3.104-0.929,6.36-2.808,7.417c-2.848,1.601-12.498-1.196-12.272-5.517
							c0.23-4.321,2.381-12.245,2.381-12.245h6.248c0,0,0.803,0.315,1.844,0.878c1.876,1.014,4.527,2.84,4.639,5.106
							C273.359,270.923,273.377,272.484,273.265,274.086z"/>
						<path style="fill:#FD8471;" d="M273.265,274.086c-0.574,1.206-1.475,2.677-3.031,3.325c-2.757,1.147-5.383-0.278-6.539-5.549
							c-1.156-5.271,0.266-7.173,0.266-7.173l4.697-0.069c1.876,1.014,4.527,2.84,4.639,5.106
							C273.359,270.923,273.377,272.484,273.265,274.086z"/>
						<path style="fill:#FCB38F;" d="M269.201,260.151c0,0,3.677,5.473,4.335,8.936c0.657,3.464-1.552,6.845-4.043,7.211
							s-4.931-5.501-3.729-9.475C266.076,265.792,268.766,265.578,269.201,260.151z"/>
					</g>
					<path style="fill:#F15A48;" d="M346.476,257.249c-4.515,0.325-7.387,0.978-7.387,0.978s-3.022-13.155-3.421-15.024
						c-0.401-1.866-5.206-23.086-6.006-26.956c-0.8-3.868-0.8-19.678-0.8-19.678s-0.135,4.332-0.401,14.198
						c-0.147,5.48,2.697,17.311,4.017,27.139l0.002,0.01c1.057,7.86,1.138,14.434-2.062,15.45c-7.207,2.291-20.374-2.288-32.383,0
						c-12.009,2.291-24.554,1.981-24.554,1.981c0.533-3.202-0.711-14.411-0.711-14.411c-1.602,4.805-3.568,19.216-3.568,19.216
						c0.348,6.75-7.161,7.402-8.865,4.467c0,0-0.607-2.781-1.15-6.59c-0.465-3.258-0.884-7.27-0.833-10.93
						c0.076-5.61,1.427-30.006,1.427-30.006c-1.496-15.082-1.653-31.878-1.579-41.855c0.046-5.892,2.786-11.433,7.435-15.057
						c7.423-5.787,16.519-11.968,16.519-11.968l1.435,0.058l40.065,1.656c0,0,2.478,1.478,5.422,3.563
						c3.675,2.605,8.073,6.163,9.259,8.98c2.133,5.071,6.138,45.106,6.057,53.113c-0.058,5.93,1.112,25.933,1.724,35.91
						c0,0,0,0,0,0.003C346.331,254.986,346.476,257.249,346.476,257.249z"/>
					<path style="fill:#D43538;" d="M330.419,253.366c-7.207,2.291-20.374-2.288-32.383,0c-12.009,2.291-24.554,1.981-24.554,1.981
						c0.533-3.202-0.711-14.411-0.711-14.411c-1.602,4.805-3.568,19.216-3.568,19.216c0.348,6.75-7.161,7.402-8.865,4.467
						c0,0-0.607-2.781-1.15-6.59c0,0,3.141,6.89,6.577,4.508c3.438-2.384,3.944-25.268,5.467-28.145
						c1.524-2.88-2.938-14.221-2.938-14.221l4.292,2.369c0,0,2.27-30.626,0.716-39.27c0.076,0.361,2.803,13.302,2.148,20.648
						c-0.663,7.448-1.671,16.928,0.102,22.855c1.775,5.925,2.113,16.801,4.144,19.234c2.032,2.435,16.085-2.265,21.672,0
						c5.587,2.265,24.95,3.794,28.272,0c3.322-3.794,2.839-8.101,2.839-8.101l0.002,0.01
						C333.537,245.776,333.618,252.35,330.419,253.366z"/>
					<path style="fill:#D43538;" d="M346.476,257.249c-4.515,0.325-7.387,0.978-7.387,0.978s-3.022-13.155-3.421-15.024
						c-0.401-1.866-5.206-23.086-6.006-26.956c-0.8-3.868-0.8-19.678-0.8-19.678l1.285-19.323c0,0,0.813,30.438,1.232,35.136
						s3.083,5.206,3.083,5.206s-0.97,1.143-1.732,1.227c0,0,3.766,20.994,5.163,25.946c1.397,4.952,3.012,9.015,5.335,9.269
						c2.278,0.249,2.867-2.425,2.89-2.534C346.331,254.986,346.476,257.249,346.476,257.249z"/>
					<path style="fill:#D43538;" d="M330.876,170.735c-2.369,5.757-9.073,3.182-15,2.166c-5.925-1.016-14.628,7.991-22.077,8.974
						c-7.448,0.98-16.253-5.724-18.114-14.018c-1.785-7.951,7.156-18.703,7.905-19.587l40.065,1.656c0,0,2.478,1.478,5.422,3.563
						C330.68,159.749,332.197,167.527,330.876,170.735z"/>
				</g>
				<path style="fill:#FD8471;" d="M282.572,140.741l-0.415,7.472c0,0,7.694,0.734,9.918-2.024l-0.534-8.54L282.572,140.741z"/>
				<path style="fill:#FCB38F;" d="M303.457,131.339c-1.949,2.643-5.976,4.734-10.432,6.365c-6.901,2.529-14.828,3.96-17.643,4.647
					c-0.231,0.057-0.459,0.102-0.687,0.136c-0.074,0.012-0.149,0.022-0.223,0.032c-2.921,0.357-5.021-1.163-5.84-2.509
					c-0.325-0.541-0.446-1.051-0.33-1.403c0.434-1.314,0.828-8.223,0.613-9.522c-0.218-1.299,0.379-3.643,0.379-3.643
					c-1.337-0.6-2.43-1.624-3.114-2.383c-0.459-0.508-0.394-1.297,0.134-1.736l5.54-4.58c0,0,0.54-3.37,1.227-5.872
					c0.687-2.499,9.914-11.667,9.914-11.667c8.907-4.22,24.69,6.122,24.951,9.286C308.208,111.655,308.421,124.604,303.457,131.339z
					"/>
				<path style="fill:#FD8471;" d="M293.025,137.704c-6.901,2.529-14.828,3.96-17.643,4.647c-0.231,0.057-0.459,0.102-0.687,0.136
					c-0.074,0.012-0.149,0.022-0.223,0.032c-2.921,0.357-5.021-1.163-5.84-2.509c1.185,0.548,3.09,1.079,5.83,0.841
					c5.158-0.444,15.746-10.586,15.746-10.586L293.025,137.704z"/>
				<path style="fill:#2D1C64;" d="M269.727,118.5c0,0,2.331-11.188,4.11-14.924c3.311-6.952,8.007-10.684,14.59-9.79
					c6.583,0.894,21.299,1.748,23.142,9.903c1.868,8.268,7.016,7.538,7.283,20.766c0.185,9.147,5.52,7.303,8.185,10.08
					c8.334,8.685,1.957,16.545,5.338,21.35c3.381,4.805,2.847,12.634-0.534,16.548c-3.381,3.914-16.421-6.303-23.785,0
					c-18.294,15.658-30.255-2.046-27.902-10.231c2.353-8.185,9.657-22.136,6.811-28.185c-2.847-6.049-4.053-11.603-2.273-17.097
					s1.342-12.53-1.423-14.234c-2.765-1.704-6.647,3.264-6.647,3.264l-4.768,10.792L269.727,118.5z"/>
				<g>
					<path style="fill:#F15A48;" d="M309.574,426.303c-1.293,2.199-0.174,7.821-3.473,9.898c-3.299,2.077-13.686,0.978-15.397,0
						c-0.308-0.176-0.555-0.53-0.741-1.014c-0.005-0.012-0.01-0.024-0.012-0.037c-0.826-2.219-0.442-7.058,0.753-9.947
						c1.466-3.544,5.743-12.464,5.743-12.464c0.122-1.955,0.692-4.319,0.692-4.319s-0.403-5.179,6.152-5.457
						c6.555-0.279,6.284,3.502,6.284,3.502s2.393,2.852,2.759,6.029C312.7,415.672,310.867,424.104,309.574,426.303z"/>
					<path style="fill:#D43538;" d="M309.574,426.303c-1.293,2.199-0.174,7.821-3.473,9.898c-3.299,2.077-13.686,0.978-15.397,0
						c-0.308-0.176-0.555-0.53-0.741-1.014c-0.005-0.012-0.01-0.024-0.012-0.037c-0.753-2.764,2.219-5.223,3.404-8.317
						c1.185-3.096,5.738-10.592,6.227-12.303c0.489-1.711,3.993-4.399,7.496-4.644c3.502-0.244,5.254,2.608,5.254,2.608
						C312.7,415.672,310.867,424.104,309.574,426.303z"/>
				</g>
			</g>
			<g>
				<g>
					<path style="fill:#FCB38F;" d="M334.478,269.336c0.267,1.867,3.031,3.636,4.389,3.441c0.19-0.027,0.359-0.005,0.519,0.056
						l0.002,0c0.218,0.081,0.42,0.227,0.639,0.4c0.768,0.609,1.746,1.553,4.356,1.179c3.903-0.559,5.441-3.722,5.925-6.995
						c0.325-2.195-0.681-3.343-1.544-3.916c-0.423-0.281-0.811-0.424-0.99-0.483c0,0,0.122-0.48,0.17-1.231
						c0.09-1.395,0.215-2.621-1.467-4.538c0,0-4.997,0.044-7.387,0.978c0,0-1.329,1.981-1.607,3.666
						C337.203,263.578,334.21,267.469,334.478,269.336z"/>
				</g>
				<g>
					<g>
						<path style="fill:#403384;" d="M361.805,334.734l1.59-0.191l-7.718-64.369c-0.365-3.042-2.95-5.335-6.013-5.335h-20.008
							c-1.704,0-3.338,0.723-4.484,1.985c-1.146,1.262-1.709,2.958-1.545,4.654l6.259,63.239l1.594-0.158l-6.258-63.237
							c-0.12-1.246,0.294-2.494,1.136-3.422c0.843-0.928,2.045-1.46,3.298-1.46h20.008c2.254,0,4.155,1.687,4.423,3.925
							L361.805,334.734z"/>
					</g>
					<g>
						<path style="fill:#2D1C64;" d="M324.421,273.368c0.082,0,0.164-0.004,0.247-0.012c1.394-0.135,2.415-1.374,2.28-2.768
							c-0.075-0.773,0.172-1.516,0.694-2.091c0.522-0.575,1.237-0.892,2.014-0.892h20.008c1.376,0,2.537,1.03,2.701,2.396
							c0.167,1.391,1.428,2.382,2.819,2.216c1.39-0.167,2.382-1.429,2.216-2.819c-0.469-3.913-3.795-6.864-7.736-6.864h-20.008
							c-2.192,0-4.295,0.931-5.768,2.554c-1.474,1.623-2.198,3.805-1.987,5.987C322.027,272.387,323.13,273.367,324.421,273.368z"/>
					</g>
				</g>
				<g>
					<path style="fill:#31D4A9;" d="M309.718,348.436l2.439,60.669v18.317c0,3.024,1.94,5.706,4.812,6.654
						c18.562,6.125,46.986,2.773,58.065,1.102c2.995-0.451,5.405-2.69,6.08-5.642c0.91-3.974,1.759-9.128,2.338-12.952
						c0.475-3.112,0.766-5.343,0.766-5.343c1.481-14.383-3.397-55.057-5.485-71.324c-0.51-3.961-3.811-6.971-7.807-7.105
						c-15.023-0.51-49.639-1.353-53.237,1.564c-0.104,0.085-0.208,0.173-0.312,0.262c-3.272,2.848-5.909,8.148-7.073,10.753
						C309.875,346.347,309.675,347.388,309.718,348.436z"/>
					<path style="fill:#31AF8B;" d="M309.718,348.436l2.439,60.669v18.317c0,3.024,1.94,5.706,4.812,6.654
						c18.562,6.125,46.986,2.773,58.065,1.102c2.995-0.451,5.405-2.69,6.08-5.642c0.91-3.974,1.759-9.128,2.338-12.952
						c-5.634,1.217-19.302,3.776-34.109,3.643c-19.392-0.179-25.621-0.326-27.578-3.277c-1.777-2.682-2.527-67.278-4.388-82.312
						c-3.272,2.848-5.909,8.148-7.073,10.753C309.875,346.347,309.675,347.388,309.718,348.436z"/>
				</g>
				<path style="fill:#31AF8B;" d="M372.973,381.035c0.56,4.339,2.169,17.515,1.915,23.867c-0.041,1.014-0.82,1.843-1.829,1.954
					c-6.024,0.667-26.872,2.665-40.605,0.125c-0.931-0.172-1.63-0.945-1.691-1.889c-0.282-4.301-1.035-16.415-1.051-23.182
					c-0.002-1.02,0.742-1.885,1.75-2.037c5.968-0.899,26.05-3.529,39.912-0.584C372.223,379.47,372.862,380.173,372.973,381.035z"/>
				<path style="fill:#FCB38F;" d="M339.385,272.833c0,0,4.1-3.141,3.831-5.353c-0.268-2.213-3.148-1.73-3.959-1.346
					c-0.811,0.384-2.37,1.906-2.37,1.906S337.376,271.524,339.385,272.833z"/>
				<path style="fill:#FCB38F;" d="M349.859,269.456c0,0,0.896-4.215-0.983-4.941c-1.879-0.727-6.796-0.724-7.557,0.292
					c-0.761,1.016-0.423,2.788-0.423,2.788S345.068,271.312,349.859,269.456z"/>
			</g>
		</g>
	</g>
</g>
<g id="DESIGNED_BY_FREEPIK">
	<g>
		<g id="XMLID_1_">
			<g id="XMLID_20_">
				<path id="XMLID_28_" style="fill:#112129;" d="M260.104,465.465c-0.432,0.443-0.803,0.931-1.108,1.453l-0.465-0.241
					c-0.067-0.298-0.349-0.503-0.659-0.466c-0.331,0.039-0.568,0.339-0.529,0.67c0.039,0.331,0.339,0.568,0.67,0.529
					c0.065-0.008,0.127-0.026,0.183-0.052l0.452,0.234c-0.251,0.554-0.433,1.139-0.539,1.744l0.747,0.132
					c0.23-1.306,0.85-2.507,1.792-3.473L260.104,465.465z"/>
				<path id="XMLID_27_" style="fill:#112129;" d="M265.592,463.163c-0.171,0-0.341,0.006-0.51,0.017l-0.074-0.626
					c0.188-0.149,0.296-0.389,0.266-0.645c-0.046-0.393-0.402-0.674-0.795-0.628c-0.393,0.046-0.674,0.402-0.628,0.795
					c0.03,0.254,0.189,0.461,0.405,0.564l0.073,0.624c-0.714,0.116-1.403,0.332-2.06,0.646l0.327,0.684
					c0.934-0.447,1.942-0.673,2.995-0.673c0.496,0,0.993,0.053,1.475,0.158l0.161-0.741
					C266.692,463.222,266.142,463.163,265.592,463.163z"/>
				<path id="XMLID_26_" style="fill:#112129;" d="M272.194,465.711c0.331-0.04,0.566-0.341,0.526-0.672
					c-0.04-0.331-0.341-0.566-0.672-0.526c-0.309,0.038-0.535,0.304-0.53,0.609l-0.416,0.363c-0.418-0.43-0.89-0.813-1.408-1.139
					l-0.404,0.641c1.134,0.715,2.021,1.726,2.563,2.925l0.691-0.313c-0.251-0.554-0.568-1.072-0.942-1.545l0.402-0.351
					C272.065,465.716,272.129,465.719,272.194,465.711z"/>
				<path id="XMLID_25_" style="fill:#112129;" d="M265.044,473.372c-0.386,0.023-0.775,0.035-1.157,0.035
					c-0.88,0-1.733-0.061-2.478-0.179c-0.39-0.062-0.846-0.155-1.27-0.292c1.046,1.861,3.069,3.125,5.388,3.125
					c2.855,0,5.262-1.916,5.95-4.504c-0.682,0.449-1.505,0.825-2.459,1.123C267.839,473.047,266.464,473.286,265.044,473.372z"/>
				<path id="XMLID_21_" style="fill:#112129;" d="M265.592,464.68c-3.352,0-6.08,2.666-6.08,5.943c0,0.426,0.046,0.849,0.137,1.261
					c0.673,0.483,2.706,0.89,5.348,0.731c2.879-0.173,5.297-0.957,6.672-2.159c-0.005-0.195-0.021-0.39-0.045-0.582
					C271.244,466.913,268.65,464.68,265.592,464.68z M263.432,471.194c-1.02,0-1.85-0.83-1.85-1.85c0-1.02,0.83-1.85,1.85-1.85
					c1.02,0,1.85,0.83,1.85,1.85C265.282,470.365,264.452,471.194,263.432,471.194z M268.17,470.286c-0.75,0-1.36-0.61-1.36-1.36
					s0.61-1.361,1.36-1.361c0.75,0,1.361,0.61,1.361,1.361S268.92,470.286,268.17,470.286z"/>
			</g>
			<path id="XMLID_18_" style="fill:#112129;" d="M281.595,466.547c-0.295-0.116-0.805-0.309-1.382-0.237
				c-0.551,0.069-0.844,0.341-0.844,1.007v0.866h2.228v1.717h-2.228v5.455h-1.932v-5.455h-1.34v-1.717h1.34v-0.888
				c0-1.68,0.896-2.783,2.568-2.783c0.643,0,1.157,0.122,1.59,0.308L281.595,466.547z"/>
			<path id="XMLID_16_" style="fill:#112129;" d="M286.298,469.879c-0.177-0.03-0.358-0.046-0.526-0.046
				c-0.896,0-1.51,0.548-1.51,1.614v3.908h-1.932v-7.172h1.873v0.785c0.451-0.673,1.14-0.977,2.021-0.977
				c0.414,0,0.848,0.128,1.094,0.337L286.298,469.879z"/>
			<path id="XMLID_13_" style="fill:#112129;" d="M293.965,471.757c0,0.222-0.015,0.489-0.037,0.651h-5.085
				c0.207,1.036,0.933,1.488,1.843,1.488c0.622,0,1.295-0.252,1.813-0.688l1.132,1.243c-0.814,0.748-1.85,1.088-3.057,1.088
				c-2.198,0-3.723-1.495-3.723-3.753c0-2.258,1.48-3.797,3.627-3.797C292.544,467.99,293.958,469.522,293.965,471.757z
				 M288.851,471.091h3.175c-0.177-0.918-0.733-1.436-1.562-1.436C289.554,469.655,289.021,470.203,288.851,471.091z"/>
			<path id="XMLID_10_" style="fill:#112129;" d="M301.618,471.757c0,0.222-0.015,0.489-0.037,0.651h-5.085
				c0.207,1.036,0.933,1.488,1.843,1.488c0.622,0,1.295-0.252,1.813-0.688l1.132,1.243c-0.814,0.748-1.85,1.088-3.057,1.088
				c-2.198,0-3.723-1.495-3.723-3.753c0-2.258,1.48-3.797,3.627-3.797C300.197,467.99,301.611,469.522,301.618,471.757z
				 M296.504,471.091h3.175c-0.178-0.918-0.733-1.436-1.562-1.436C297.207,469.655,296.674,470.203,296.504,471.091z"/>
			<path id="XMLID_7_" style="fill:#112129;" d="M309.964,471.764c0,2.154-1.495,3.775-3.471,3.775
				c-0.962,0-1.643-0.378-2.109-0.933v3.708h-1.924v-10.133h1.887v0.792c0.466-0.585,1.155-0.984,2.139-0.984
				C308.469,467.99,309.964,469.61,309.964,471.764z M304.287,471.764c0,1.132,0.747,1.976,1.843,1.976
				c1.14,0,1.85-0.881,1.85-1.976c0-1.095-0.71-1.976-1.85-1.976C305.035,469.788,304.287,470.632,304.287,471.764z"/>
			<path id="XMLID_4_" style="fill:#112129;" d="M313.068,465.836c0,0.696-0.54,1.229-1.236,1.229c-0.696,0-1.229-0.533-1.229-1.229
				c0-0.696,0.533-1.243,1.229-1.243C312.527,464.592,313.068,465.14,313.068,465.836z M312.809,475.354h-1.932v-7.172h1.932
				V475.354z"/>
			<path id="XMLID_2_" style="fill:#112129;" d="M316.032,470.736l2.701-2.554h2.368l-3.479,3.375l3.501,3.797h-2.376l-2.716-2.901
				v2.901H314.1v-10.658h1.932V470.736z"/>
		</g>
		<g>
			<path style="fill:#112129;" d="M184.412,475.289v-1.055c-0.527,0.718-1.391,1.23-2.387,1.23c-1.846,0-3.149-1.406-3.149-3.706
				c0-2.256,1.289-3.721,3.149-3.721c0.952,0,1.816,0.469,2.387,1.245v-3.765h1.099v9.77H184.412z M184.412,473.37v-3.208
				c-0.395-0.615-1.245-1.143-2.124-1.143c-1.421,0-2.27,1.172-2.27,2.739c0,1.567,0.85,2.724,2.27,2.724
				C183.168,474.483,184.017,473.986,184.412,473.37z"/>
			<path style="fill:#112129;" d="M186.932,471.744c0-2.051,1.465-3.706,3.486-3.706c2.139,0,3.398,1.67,3.398,3.794v0.279h-5.727
				c0.088,1.333,1.025,2.446,2.549,2.446c0.805,0,1.626-0.322,2.182-0.894l0.527,0.718c-0.703,0.703-1.655,1.084-2.812,1.084
				C188.44,475.465,186.932,473.956,186.932,471.744z M190.403,468.947c-1.509,0-2.256,1.274-2.314,2.358h4.643
				C192.718,470.25,192.015,468.947,190.403,468.947z"/>
			<path style="fill:#112129;" d="M194.607,474.351l0.571-0.791c0.469,0.542,1.362,1.011,2.329,1.011c1.084,0,1.67-0.513,1.67-1.216
				c0-1.714-4.38-0.659-4.38-3.281c0-1.098,0.952-2.036,2.636-2.036c1.201,0,2.051,0.454,2.622,1.026l-0.513,0.762
				c-0.424-0.513-1.201-0.894-2.109-0.894c-0.967,0-1.567,0.483-1.567,1.113c0,1.552,4.38,0.527,4.38,3.281
				c0,1.187-0.952,2.138-2.783,2.138C196.306,475.465,195.325,475.113,194.607,474.351z"/>
			<path style="fill:#112129;" d="M201.477,466.471c0-0.41,0.337-0.747,0.732-0.747c0.41,0,0.747,0.337,0.747,0.747
				c0,0.41-0.337,0.732-0.747,0.732C201.814,467.203,201.477,466.881,201.477,466.471z M201.667,475.289v-7.075h1.099v7.075H201.667
				z"/>
			<path style="fill:#112129;" d="M204.582,477.105l0.556-0.82c0.586,0.703,1.289,0.967,2.3,0.967c1.172,0,2.27-0.571,2.27-2.124
				v-1.011c-0.513,0.718-1.377,1.26-2.373,1.26c-1.845,0-3.149-1.377-3.149-3.662c0-2.27,1.289-3.677,3.149-3.677
				c0.952,0,1.802,0.469,2.373,1.245v-1.069h1.098v6.87c0,2.344-1.641,3.076-3.369,3.076
				C206.237,478.16,205.417,477.926,204.582,477.105z M209.709,473.253v-3.091c-0.381-0.615-1.23-1.143-2.109-1.143
				c-1.421,0-2.27,1.128-2.27,2.695c0,1.553,0.849,2.695,2.27,2.695C208.478,474.41,209.328,473.868,209.709,473.253z"/>
			<path style="fill:#112129;" d="M217.413,475.289v-4.629c0-1.245-0.63-1.641-1.582-1.641c-0.865,0-1.685,0.527-2.095,1.099v5.17
				h-1.099v-7.075h1.099v1.025c0.498-0.586,1.465-1.201,2.519-1.201c1.48,0,2.256,0.747,2.256,2.285v4.966H217.413z"/>
			<path style="fill:#112129;" d="M219.932,471.744c0-2.051,1.465-3.706,3.486-3.706c2.139,0,3.398,1.67,3.398,3.794v0.279h-5.727
				c0.088,1.333,1.025,2.446,2.549,2.446c0.806,0,1.626-0.322,2.183-0.894l0.527,0.718c-0.703,0.703-1.655,1.084-2.812,1.084
				C221.441,475.465,219.932,473.956,219.932,471.744z M223.404,468.947c-1.509,0-2.256,1.274-2.314,2.358h4.643
				C225.718,470.25,225.015,468.947,223.404,468.947z"/>
			<path style="fill:#112129;" d="M233.35,475.289v-1.055c-0.527,0.718-1.392,1.23-2.388,1.23c-1.846,0-3.149-1.406-3.149-3.706
				c0-2.256,1.289-3.721,3.149-3.721c0.952,0,1.817,0.469,2.388,1.245v-3.765h1.098v9.77H233.35z M233.35,473.37v-3.208
				c-0.396-0.615-1.245-1.143-2.124-1.143c-1.421,0-2.27,1.172-2.27,2.739c0,1.567,0.849,2.724,2.27,2.724
				C232.105,474.483,232.954,473.986,233.35,473.37z"/>
			<path style="fill:#112129;" d="M239.692,475.289v-9.77h1.098v3.765c0.572-0.776,1.421-1.245,2.388-1.245
				c1.845,0,3.149,1.465,3.149,3.721c0,2.299-1.304,3.706-3.149,3.706c-0.996,0-1.86-0.513-2.388-1.23v1.055H239.692z
				 M242.9,474.483c1.436,0,2.285-1.157,2.285-2.724c0-1.568-0.85-2.739-2.285-2.739c-0.864,0-1.728,0.527-2.109,1.143v3.208
				C241.171,473.986,242.036,474.483,242.9,474.483z"/>
			<path style="fill:#112129;" d="M247.528,477.061c0.161,0.073,0.425,0.117,0.601,0.117c0.483,0,0.805-0.161,1.055-0.747
				l0.469-1.069l-2.959-7.148h1.187l2.358,5.8l2.344-5.8h1.201l-3.545,8.51c-0.425,1.025-1.143,1.421-2.08,1.435
				c-0.234,0-0.601-0.044-0.806-0.103L247.528,477.061z"/>
		</g>
	</g>
</g>
</svg>
